<svg width="139" height="32" viewBox="0 0 139 32" fill="none" xmlns="http://www.w3.org/2000/svg">
<g clip-path="url(#clip0_4311_1232)">
<path d="M11.0639 0.263245L12.5183 2.79392C12.8092 3.31751 12.8092 3.95745 12.5183 4.48104L3.85 19.5197L7.95145 26.6172C8.59139 27.7226 9.78401 28.4207 11.0639 28.4207C12.3438 28.4207 13.5364 27.7226 14.1763 26.6172L18.2778 19.5197L17.2015 17.5998L12.5474 25.6573C12.2565 26.1809 11.6747 26.5009 11.093 26.5009C10.4821 26.5009 9.92945 26.1809 9.63857 25.6573L6.06071 19.5197L14.1182 5.55731L15.5726 8.08799C15.8635 8.61158 15.8635 9.25152 15.5726 9.77511L9.95853 19.5197L11.0639 21.4395L17.1724 10.8514L21.1866 17.8035C21.7975 18.8797 21.7975 20.1887 21.1866 21.265L17.1142 28.3334C16.5034 29.4097 14.5545 31.824 11.0639 31.824C7.5733 31.824 5.65347 29.4097 5.01353 28.3334L0.941172 21.265C0.330319 20.1887 0.330319 18.8797 0.941172 17.8035L11.0639 0.263245Z" fill="#BEBED2"/>
<path d="M30.0026 7.79712H32.8241V24.4647H30.0026V7.79712Z" fill="#BEBED2"/>
<path d="M36.6059 10.8513C37.5216 10.8513 38.2639 10.109 38.2639 9.19331C38.2639 8.2776 37.5216 7.53528 36.6059 7.53528C35.6902 7.53528 34.9479 8.2776 34.9479 9.19331C34.9479 10.109 35.6902 10.8513 36.6059 10.8513Z" fill="#BEBED2"/>
<path d="M35.1783 12.8876H38.029V24.4647H35.1783V12.8876ZM45.5047 12.5967C42.2759 12.5967 39.6579 14.8656 39.6579 18.4725C39.6579 22.0795 41.9268 24.2902 45.5338 24.2902C46.9591 24.2902 48.4717 25.0174 48.4717 26.6173C48.4717 28.2171 47.1918 29.1189 45.5338 29.1189C43.8757 29.1189 42.5086 28.1299 42.5086 26.6173H39.6579C39.6579 29.7297 42.1595 31.795 45.5338 31.795C48.8789 31.795 51.3223 29.817 51.3223 26.6173C51.3223 25.1338 50.8569 23.7375 48.9371 22.7776C50.8278 21.905 51.3805 19.8979 51.3805 18.4435C51.3805 14.8656 48.7335 12.5967 45.5047 12.5967ZM45.5338 21.9341C43.8757 21.9341 42.5086 20.5087 42.5086 18.4725C42.5086 16.4655 43.8757 14.982 45.5338 14.982C47.1918 14.982 48.5299 16.4945 48.5299 18.4725C48.5299 20.4796 47.1627 21.9341 45.5338 21.9341ZM59.6416 12.5967C58.3326 12.5967 57.0818 13.004 56.0346 14.3129V7.76807H53.184V24.4356H56.0346V18.5598C56.0346 16.8436 57.1982 15.4183 58.8853 15.4183C60.3979 15.4183 61.5032 16.32 61.5032 18.4144V24.4356H64.3539V18.2108C64.383 14.8074 62.9286 12.5967 59.6416 12.5967ZM71.306 22.4867C70.9569 22.4867 70.666 22.3704 70.4915 22.1377C70.317 21.905 70.2297 21.5559 70.2297 21.0323V15.331H72.5277L72.7895 12.8585H70.2588V9.68789L67.3791 10.0079V12.8876H65.1974V15.3601H67.3791V21.1196C67.3791 22.3122 67.6699 23.2139 68.2226 23.8248C68.7753 24.4356 69.6188 24.7556 70.6951 24.7556C71.1896 24.7556 71.655 24.6974 72.1495 24.552C72.644 24.4066 73.0804 24.2029 73.4585 23.9411L72.4695 22.1086C72.0914 22.3704 71.6841 22.4867 71.306 22.4867ZM83.0285 18.2398C81.865 17.5126 80.4979 17.4254 79.1598 17.3381C78.3744 17.2799 77.1818 17.1054 77.1818 16.0873C77.1818 15.3601 77.9381 14.9529 79.3052 14.9529C80.4106 14.9529 81.3705 15.2147 82.185 15.971L83.7848 14.1093C82.4468 12.9458 81.0796 12.5967 79.2471 12.5967C77.1236 12.5967 74.3311 13.5275 74.3311 16.2037C74.3311 17.309 74.9129 18.3271 75.8728 18.9089C76.9491 19.5779 78.3453 19.6652 79.5379 19.8106C80.3524 19.8979 81.6905 20.1015 81.4578 21.2359C81.3123 22.0213 80.3524 22.254 79.6834 22.2831C78.9562 22.3122 78.229 22.254 77.5018 22.0795C76.7455 21.8759 76.1346 21.5268 75.4656 21.0905L74.0112 22.9231C74.0984 22.9812 74.1857 23.0685 74.1857 23.0685C76.0474 24.6102 78.6362 25.1047 80.9924 24.5811C82.7667 24.1738 84.2793 22.894 84.2793 20.9741C84.3375 19.8979 83.9885 18.8216 83.0285 18.2398ZM92.424 12.5967C91.1151 12.5967 89.5734 13.1494 88.6717 14.4293L88.5844 12.8585H85.821V29.5261L88.6717 29.2061V23.0976C89.4861 24.3484 91.2605 24.7556 92.4822 24.7556C96.1764 24.7556 98.329 21.9922 98.329 18.6471C98.329 15.2437 95.9728 12.5967 92.424 12.5967ZM92.1913 22.2831C90.2424 22.2831 88.9335 20.5087 88.9335 18.7053C88.9335 16.9018 90.1552 14.982 92.1913 14.982C94.2566 14.982 95.4492 16.9309 95.4492 18.7053C95.4783 20.5087 94.1403 22.2831 92.1913 22.2831ZM102.052 19.6943C102.372 21.0614 103.623 22.254 105.659 22.254C106.706 22.254 108.103 21.7304 108.772 21.0614L110.604 22.8649C109.383 24.1157 107.375 24.7265 105.63 24.7265C102.023 24.7265 99.4052 22.3413 99.4052 18.6471C99.4052 15.1565 102.11 12.5967 105.426 12.5967C108.917 12.5967 111.826 14.982 111.535 19.6943H102.052ZM108.772 17.5126C108.452 16.1455 107.085 14.9529 105.426 14.9529C103.885 14.9529 102.459 16 102.052 17.5126H108.772ZM115.258 19.6943C115.578 21.0614 116.829 22.254 118.865 22.254C119.912 22.254 121.309 21.7304 121.978 21.0614L123.81 22.8649C122.589 24.1157 120.581 24.7265 118.836 24.7265C115.229 24.7265 112.611 22.3413 112.611 18.6471C112.611 15.1565 115.317 12.5967 118.633 12.5967C122.123 12.5967 125.032 14.982 124.741 19.6943H115.258ZM122.007 17.5126C121.687 16.1455 120.32 14.9529 118.662 14.9529C117.12 14.9529 115.695 16 115.287 17.5126H122.007ZM131.635 24.7556C132.944 24.7556 134.486 24.2029 135.387 22.9231L135.475 24.4647H138.238V7.79715H135.387V14.2547C134.573 13.004 132.769 12.6258 131.548 12.6258C127.854 12.6258 125.73 15.3601 125.73 18.7343C125.73 22.1086 128.086 24.7556 131.635 24.7556ZM131.839 15.0692C133.788 15.0692 135.097 16.8436 135.097 18.6471C135.097 20.4505 133.875 22.3704 131.839 22.3704C129.773 22.3704 128.581 20.4215 128.581 18.6471C128.581 16.8436 129.89 15.0692 131.839 15.0692Z" fill="#BEBED2"/>
</g>
<defs>
<clipPath id="clip0_4311_1232">
<rect width="138.169" height="32" fill="white" transform="translate(0.330688)"/>
</clipPath>
</defs>
</svg>
