<svg width="215" height="32" viewBox="0 0 215 32" fill="none" xmlns="http://www.w3.org/2000/svg">
<path d="M114.85 20.7893C114.592 21.7342 114.206 22.5933 113.776 23.4094C113.648 23.6671 113.519 23.9248 113.347 24.1826C112.617 25.2564 111.285 25.9866 109.911 25.9866C108.665 25.9866 107.505 25.4282 106.732 24.5262C106.689 24.4832 106.646 24.4403 106.603 24.3973C105.83 23.4953 104.713 22.9369 103.425 22.9369C103.081 22.9369 102.823 22.9799 102.523 23.0228V31.7423C101.578 31.9141 100.59 32 99.6019 32C90.7965 32 83.6663 24.8268 83.6663 16.0215C83.6663 7.21611 90.7106 0 99.5589 0C101.234 0 102.866 0.30067 104.37 0.7302L99.6448 5.49799L102.523 8.37584L112.66 18.5128L113.089 18.9423L114.85 20.7893Z" fill="#BEBED2"/>
<path d="M0.897766 20.5316L2.40112 19.8014C3.17428 21.6054 5.02125 22.5933 7.34072 22.5933C9.83199 22.5933 11.7649 21.3047 11.7649 19.0712C11.7649 16.6658 9.57428 16.1933 7.21186 15.6779C4.46287 15.0766 1.37025 14.2604 1.37025 10.6524C1.37025 7.81749 4.03334 5.62689 7.16891 5.62689C9.78904 5.62689 12.1515 6.87253 13.0964 9.2779L11.636 10.0081C10.8199 8.24702 9.23065 7.2591 7.083 7.2591C4.93535 7.2591 3.08837 8.67656 3.08837 10.5665C3.08837 12.9719 5.32193 13.4443 7.72729 13.9598C10.4763 14.5611 13.526 15.3772 13.526 19.0282C13.44 22.2497 10.734 24.2685 7.29776 24.2685C4.41991 24.2685 1.88569 22.9799 0.897766 20.5316Z" fill="#BEBED2"/>
<path d="M16.532 24.0966V5.88452H18.2502V14.2174H29.0314V5.88452H30.7495V24.0966H29.0314V15.8067H18.2502V24.0536H16.532V24.0966Z" fill="#BEBED2"/>
<path d="M36.933 5.88452V24.0966H35.2149V5.88452H36.933Z" fill="#BEBED2"/>
<path d="M40.0274 24.0967L42.6475 7.55975C42.8623 6.27116 43.8073 5.54095 44.967 5.54095C45.9979 5.54095 46.8999 6.05639 47.2435 7.21613L51.1522 21.047C51.2381 21.4765 51.324 21.6054 51.5818 21.6054C51.7965 21.6054 51.9254 21.4336 52.0113 21.047L55.92 7.25908C56.2636 6.09934 57.1657 5.54095 58.1965 5.54095C59.3133 5.54095 60.2583 6.2282 60.473 7.6027L62.8355 23.9678H61.1173L58.8838 8.03223C58.7979 7.43089 58.669 7.04431 58.1536 7.04431C57.767 7.04431 57.5093 7.38794 57.3804 7.94633L53.3428 21.8202C53.1281 22.6363 52.3979 23.1087 51.6247 23.1087C50.8945 23.1087 50.1214 22.6792 49.9066 21.8631L45.869 7.90337C45.6972 7.34498 45.4824 7.04431 45.1388 7.04431C44.7522 7.04431 44.4516 7.38794 44.3657 8.03223L41.9173 24.0108H40.1563V24.0967H40.0274Z" fill="#BEBED2"/>
<path d="M69.2337 7.77453C69.7062 6.27117 70.78 5.58392 72.1545 5.58392C73.4861 5.58392 74.6029 6.27117 75.0753 7.77453L80.1867 24.0537H78.4257L76.8794 18.9853L67.5156 19.0282L65.8834 24.0537H64.1223L69.2337 7.77453ZM67.9451 17.396H76.3639L73.572 8.33291C73.3572 7.60271 72.8847 7.21614 72.1975 7.21614C71.4673 7.21614 71.0378 7.60271 70.823 8.33291L67.9451 17.396Z" fill="#BEBED2"/>
<path d="M118.372 14.9477C118.372 9.75037 122.453 5.58392 127.435 5.58392C130.485 5.58392 133.191 7.13023 134.652 9.6215L133.277 10.4376C132.074 8.41882 129.884 7.17318 127.478 7.17318C123.527 7.17318 120.219 10.5665 120.219 14.9047C120.219 19.2859 123.484 22.6792 127.478 22.6792C129.884 22.6792 132.074 21.4765 133.277 19.4577L134.652 20.3168C133.191 22.851 130.528 24.3544 127.435 24.3544C122.453 24.3544 118.372 20.2309 118.372 14.9477Z" fill="#BEBED2"/>
<path d="M139.849 7.77453C140.322 6.27117 141.396 5.58392 142.77 5.58392C144.145 5.58392 145.219 6.27117 145.691 7.77453L150.802 24.0537H149.041L147.495 18.9853L138.131 19.0282L136.499 24.0537H134.738L139.849 7.77453ZM138.518 17.396H146.937L144.145 8.33291C143.93 7.60271 143.458 7.21614 142.77 7.21614C142.04 7.21614 141.611 7.60271 141.396 8.33291L138.518 17.396Z" fill="#BEBED2"/>
<path d="M153.382 24.0966V5.88452H158.622C163.261 5.88452 166.439 7.94627 166.439 12.1557C166.439 16.5369 163.132 18.4698 158.665 18.4698H155.1V24.0966H153.382ZM155.1 7.51674V16.8375H158.622C161.972 16.8375 164.592 15.506 164.592 12.1557C164.592 8.93419 162.144 7.51674 158.622 7.51674H155.1Z" fill="#BEBED2"/>
<path d="M170.563 5.88452V24.0966H168.845V5.88452H170.563Z" fill="#BEBED2"/>
<path d="M185.638 7.51674H179.839V24.0966H178.121V7.51674H172.365V5.88452H185.638V7.51674Z" fill="#BEBED2"/>
<path d="M189.59 7.77453C190.063 6.27117 191.136 5.58392 192.511 5.58392C193.885 5.58392 194.959 6.27117 195.432 7.77453L200.543 24.0537H198.739L197.193 18.9853L187.829 19.0282L186.24 24.0967H184.479L189.59 7.77453ZM188.259 17.396H196.677L193.885 8.33291C193.671 7.60271 193.198 7.21614 192.511 7.21614C191.781 7.21614 191.351 7.60271 191.137 8.33291L188.259 17.396Z" fill="#BEBED2"/>
<path d="M204.838 22.4644H214.331V24.0966H204.838C203.55 24.0966 203.12 23.4523 203.12 22.3785V5.88452H204.838V22.4644Z" fill="#BEBED2"/>
</svg>
