<svg width="214" height="28" viewBox="0 0 214 28" fill="none" xmlns="http://www.w3.org/2000/svg">
<g clip-path="url(#clip0_4311_1238)">
<path d="M75.6216 27.7637L72.8717 23.0087C74.1678 20.5882 74.1535 17.6951 74.1535 14C74.1535 9.23785 74.1535 5.80051 71.4036 3.01483C69.4079 1.08152 66.7383 0.000488281 63.9597 0.000488281C61.181 0.000488281 58.5114 1.08152 56.5157 3.01483C53.73 5.80051 53.8088 9.23785 53.8088 14C53.8088 18.7621 53.73 22.1923 56.5157 24.978C57.4831 25.97 58.6456 26.7508 59.93 27.2709C61.2143 27.791 62.5925 28.0393 63.9776 28C64.7665 28.0009 65.5535 27.9217 66.3264 27.7637H75.6216ZM60.4973 21.734C59.4517 20.5739 59.1868 19.2921 59.1868 14C59.1868 8.70793 59.4517 7.41892 60.4973 6.25882C60.9421 5.78625 61.4826 5.41405 62.0828 5.16707C62.683 4.92008 63.3289 4.80401 63.9776 4.8266C64.621 4.80308 65.2619 4.91888 65.8564 5.16608C66.4509 5.41328 66.985 5.78603 67.4221 6.25882C68.4676 7.41892 68.7755 8.70077 68.7755 14C68.7755 19.2992 68.4676 20.5739 67.4221 21.734C66.985 22.2068 66.4509 22.5796 65.8564 22.8268C65.2619 23.074 64.621 23.1898 63.9776 23.1662C63.3289 23.1888 62.683 23.0728 62.0828 22.8258C61.4826 22.5788 60.9421 22.2066 60.4973 21.734Z" fill="#BEBED2"/>
<path d="M138.531 27.7565V0.229126H143.845V27.7565H138.531Z" fill="#BEBED2"/>
<path d="M10.5529 28C6.37792 28 3.20554 27.1049 0.527283 24.3622L4.00759 20.8818C5.74774 22.622 8.11091 23.202 10.6603 23.202C13.8327 23.202 15.5298 21.999 15.5298 19.8005C15.558 19.3763 15.4974 18.9508 15.352 18.5513C15.2065 18.1518 14.9792 17.787 14.6848 17.4803C13.9999 16.8974 13.1413 16.5575 12.2429 16.5136L8.92012 16.0481C6.55695 15.6972 4.81679 14.9668 3.58508 13.7637C2.90358 13.044 2.37665 12.1923 2.03674 11.2613C1.69682 10.3302 1.55112 9.33938 1.60861 8.34987C1.60861 3.43734 5.24646 0 11.2045 0C14.9928 0 17.7355 0.923785 20.0986 3.20818L16.647 6.57391C14.9068 4.90537 12.8229 4.67621 11.004 4.67621C8.13956 4.67621 6.7503 6.25882 6.7503 8.15652C6.74197 8.52391 6.80953 8.88907 6.94877 9.22915C7.08801 9.56924 7.29592 9.87693 7.55951 10.133C8.28608 10.7382 9.17571 11.1145 10.116 11.2143L13.36 11.6798C15.8736 12.0235 17.4633 12.7182 18.6234 13.8281C20.0557 15.2174 20.7718 17.2297 20.7718 19.6644C20.7646 24.9708 16.3176 28 10.5529 28Z" fill="#BEBED2"/>
<path d="M28.6288 27.7637V0.229126H46.768V5.02708H34.0068V11.4721H44.8774V16.2629H34.0068V22.9657H46.768V27.7637H28.6288Z" fill="#BEBED2"/>
<path d="M92.3947 28C86.7445 28 82.2617 24.1688 82.2617 18.3253V0.229126H87.6397V18.1319C87.6397 21.3043 89.4944 23.202 92.3947 23.202C95.2949 23.202 97.1855 21.3043 97.1855 18.1319V0.229126H102.528V18.3253C102.528 24.1688 98.0376 28 92.3947 28Z" fill="#BEBED2"/>
<path d="M127.896 24.9708C125.903 26.9091 123.232 27.9936 120.452 27.9936C117.672 27.9936 115.001 26.9091 113.008 24.9708C110.222 22.1851 110.301 18.7478 110.301 13.9928C110.301 9.23781 110.222 5.79331 113.008 3.00763C115.004 1.07431 117.673 -0.00671387 120.452 -0.00671387C123.23 -0.00671387 125.9 1.07431 127.896 3.00763C130.682 5.79331 130.639 9.23065 130.639 13.9928C130.639 18.7549 130.682 22.1923 127.896 24.9708ZM123.914 6.25162C123.477 5.77959 122.942 5.40734 122.348 5.1602C121.754 4.91306 121.113 4.79682 120.47 4.81939C119.821 4.79681 119.175 4.91288 118.575 5.15986C117.975 5.40684 117.434 5.77905 116.989 6.25162C115.944 7.41172 115.672 8.69356 115.672 13.9928C115.672 19.292 115.944 20.5667 116.989 21.7268C117.434 22.1994 117.975 22.5716 118.575 22.8186C119.175 23.0656 119.821 23.1816 120.47 23.159C121.113 23.1816 121.754 23.0654 122.348 22.8182C122.942 22.5711 123.477 22.1988 123.914 21.7268C124.96 20.5667 125.268 19.2849 125.268 13.9928C125.268 8.70072 124.96 7.41888 123.914 6.25878V6.25162Z" fill="#BEBED2"/>
<path d="M169.179 27.7637L167.561 22.8941H157.722L156.06 27.7637H150.453L160.479 0.229126H164.689L174.765 27.7637H169.179ZM162.734 8.34984L159.254 18.3754H166.1L162.734 8.34984Z" fill="#BEBED2"/>
<path d="M213.186 0.229126H206.305V7.11097H213.186V0.229126Z" fill="#BEBED2"/>
<path d="M189.097 21.8915V0.229065H185.652V25.336L189.097 21.8915Z" fill="#BEBED2"/>
<path d="M191.523 24.3263L188.086 27.7636H213.186V24.3263H191.523Z" fill="#BEBED2"/>
<path d="M195.98 15.0097V0.229126H192.535V18.447L195.98 15.0097Z" fill="#BEBED2"/>
<path d="M198.413 17.4445L194.969 20.8818H213.187V17.4445H198.413Z" fill="#BEBED2"/>
<path d="M202.859 8.12785V0.229126H199.414V11.5652L202.859 8.12785Z" fill="#BEBED2"/>
<path d="M205.296 10.5554L201.852 13.9999H213.188V10.5554H205.296Z" fill="#BEBED2"/>
</g>
<defs>
<clipPath id="clip0_4311_1238">
<rect width="212.685" height="28" fill="white" transform="translate(0.499939)"/>
</clipPath>
</defs>
</svg>
