<svg width="86" height="32" viewBox="0 0 86 32" fill="none" xmlns="http://www.w3.org/2000/svg">
<g clip-path="url(#clip0_4704_350)">
<path d="M35.2878 20.7873C34.2922 21.1937 33.2118 21.3493 32.1417 21.2404C31.0717 21.1314 30.0449 20.7613 29.1519 20.1626C28.259 19.5639 27.5273 18.755 27.0213 17.8073C26.5154 16.8596 26.2507 15.8021 26.2507 14.7282C26.2507 13.6543 26.5154 12.5968 27.0213 11.6491C27.5273 10.7014 28.259 9.89253 29.1519 9.29383C30.0449 8.69513 31.0717 8.32499 32.1417 8.21603C33.2118 8.10708 34.2922 8.26266 35.2878 8.66906C36.3329 6.0591 38.0319 3.7609 40.2219 1.9948C38.2642 0.859253 36.0709 0.188943 33.812 0.0357914C31.553 -0.11736 29.2891 0.25076 27.1956 1.11163C25.1021 1.97251 23.2351 3.30302 21.7394 5.00011C20.2437 6.6972 19.1593 8.7153 18.5703 10.8981C17.9813 13.0809 17.9035 15.3697 18.3429 17.5874C18.7823 19.805 19.7271 21.8919 21.1042 23.6863C22.4812 25.4808 24.2535 26.9346 26.2837 27.9352C28.314 28.9359 30.5477 29.4564 32.8118 29.4566C35.4153 29.4596 37.9728 28.7711 40.2219 27.4616C38.0321 25.6952 36.3332 23.3971 35.2878 20.7873Z" fill="black" fill-opacity="0.5"/>
<path d="M52.9894 20.7873C51.9937 21.193 50.9134 21.3479 49.8436 21.2384C48.7738 21.1289 47.7474 20.7584 46.8548 20.1596C45.9622 19.5607 45.2308 18.7518 44.7252 17.8042C44.2195 16.8565 43.955 15.7993 43.955 14.7255C43.955 13.6518 44.2195 12.5945 44.7252 11.6469C45.2308 10.6993 45.9622 9.89042 46.8548 9.29153C47.7474 8.69264 48.7738 8.32213 49.8436 8.21266C50.9134 8.10319 51.9937 8.2581 52.9894 8.66376C54.034 6.05502 55.7323 3.75793 57.9214 1.99267C55.9636 0.85786 53.7705 0.188205 51.5118 0.0355722C49.2532 -0.11706 46.9897 0.251425 44.8966 1.11249C42.8035 1.97356 40.9371 3.3041 39.4417 5.00106C37.9463 6.69803 36.8622 8.71589 36.2734 10.8984C35.6845 13.0808 35.6067 15.3694 36.0459 17.5867C36.4851 19.804 37.4296 21.8906 38.8063 23.685C40.1829 25.4793 41.9547 26.9332 43.9844 27.9341C46.0142 28.9349 48.2475 29.4559 50.5112 29.4566C53.1148 29.4596 55.6723 28.7711 57.9214 27.4616C55.7318 25.6956 54.0334 23.3973 52.9894 20.7873Z" fill="black" fill-opacity="0.5"/>
<path d="M52.992 20.7877C51.7966 21.2766 50.4831 21.4017 49.2167 21.1471C47.9504 20.8925 46.7877 20.2697 45.875 19.3569L58.5421 32.0002H67.8144L66.8435 31.0319C63.8097 30.7769 60.9069 29.6834 58.4604 27.8741C56.014 26.0647 54.1204 23.611 52.992 20.7877Z" fill="black"/>
<path d="M63.5777 19.3568C62.3532 18.1281 61.6668 16.4646 61.669 14.7313C61.6712 12.998 62.3619 11.3363 63.5895 10.1107C64.8171 8.88517 66.4815 8.19576 68.2175 8.19374C69.9535 8.19172 71.6194 8.87725 72.8499 10.1L82.1975 19.4331C83.3528 16.0087 83.207 12.2797 81.7878 8.95556C80.3686 5.63146 77.7752 2.9442 74.5008 1.40501C71.2264 -0.134172 67.4996 -0.417879 64.0294 0.607866C60.5591 1.63361 57.5876 3.89723 55.6801 6.96809C53.7726 10.0389 53.0623 13.7028 53.6842 17.2625C54.3061 20.8223 56.2169 24.0296 59.053 26.2742C61.8892 28.5189 65.4528 29.6443 69.0659 29.4364C72.6791 29.2285 76.0896 27.7017 78.6486 25.1465L72.8541 19.361C72.2449 19.9692 71.5216 20.4515 70.7256 20.7804C69.9296 21.1094 69.0765 21.2785 68.215 21.2781C67.3535 21.2777 66.5006 21.1078 65.7049 20.7781C64.9092 20.4485 64.1863 19.9655 63.5777 19.3568Z" fill="black" fill-opacity="0.5"/>
<path d="M72.8504 19.3569C72.2416 19.9649 71.5188 20.4471 70.7233 20.7761C69.9278 21.1051 69.0753 21.2744 68.2142 21.2744C67.3532 21.2744 66.5006 21.1051 65.7052 20.7761C64.9097 20.4471 64.1869 19.9649 63.5781 19.3569L76.2421 32.0002H85.5132L72.8504 19.3569Z" fill="black"/>
<path d="M16.725 17.8781C15.6622 17.6855 14.5844 17.5879 13.5043 17.5864C11.082 17.5835 8.68419 18.0694 6.45482 19.0152C4.22544 19.9609 2.21056 21.3469 0.53125 23.0898L6.90465 29.4533C7.74769 28.548 8.7686 27.8259 9.90366 27.3321C11.0387 26.8383 12.2635 26.5835 13.5016 26.5835C14.7398 26.5835 15.9646 26.8383 17.0996 27.3321C18.2347 27.8259 19.2556 28.548 20.0986 29.4533L22.2847 27.2707C19.4088 24.868 17.4462 21.5523 16.725 17.8781Z" fill="black"/>
<path d="M16.418 14.7284C16.4158 12.3355 16.9405 9.97139 17.9549 7.80341C18.9692 5.63544 20.4485 3.71659 22.2879 2.18269L20.1018 0L0.53125 23.09L6.90465 29.4535L16.7207 17.8709C16.5191 16.8355 16.4177 15.7831 16.418 14.7284Z" fill="black" fill-opacity="0.5"/>
<path d="M22.2879 2.18269L20.1018 0C19.2594 0.906293 18.2385 1.62903 17.1032 2.12289C15.9679 2.61676 14.7427 2.87109 13.5043 2.86995C12.2655 2.87164 11.0398 2.61756 9.90405 2.12367C8.76832 1.62979 7.74714 0.906759 6.90465 0L0.53125 6.36352C2.21056 8.10644 4.22544 9.49241 6.45482 10.4382C8.68419 11.3839 11.082 11.8699 13.5043 11.8669C14.5845 11.8656 15.6623 11.7677 16.725 11.5742C17.4473 7.89994 19.4111 4.58467 22.2879 2.18269Z" fill="black"/>
</g>
<defs>
<clipPath id="clip0_4704_350">
<rect width="86" height="32" fill="white"/>
</clipPath>
</defs>
</svg>
