<svg width="40" height="40" viewBox="0 0 40 40" fill="none" xmlns="http://www.w3.org/2000/svg">
<rect width="40" height="40" rx="12" fill="#321F56"/>
<g clip-path="url(#clip0_4516_1669)">
<path d="M19.9613 10.2734C14.4605 10.2734 10 14.7332 10 20.2348C10 24.636 12.8542 28.3699 16.8122 29.6871C17.31 29.7793 17.4928 29.471 17.4928 29.2079C17.4928 28.9704 17.4835 28.1856 17.4793 27.3533C14.708 27.9559 14.1232 26.178 14.1232 26.178C13.6701 25.0266 13.0172 24.7205 13.0172 24.7205C12.1134 24.1022 13.0853 24.1148 13.0853 24.1148C14.0856 24.1852 14.6123 25.1414 14.6123 25.1414C15.5008 26.6643 16.9427 26.224 17.5111 25.9695C17.6005 25.3256 17.8587 24.8863 18.1435 24.6375C15.931 24.3855 13.6051 23.5314 13.6051 19.7145C13.6051 18.627 13.9942 17.7384 14.6315 17.0408C14.528 16.7898 14.1871 15.7767 14.728 14.4046C14.728 14.4046 15.5645 14.1369 17.468 15.4257C18.2626 15.2049 19.1148 15.0943 19.9613 15.0905C20.8079 15.0943 21.6607 15.2049 22.4568 15.4257C24.3581 14.1369 25.1934 14.4046 25.1934 14.4046C25.7356 15.7767 25.3945 16.7898 25.2911 17.0408C25.9298 17.7384 26.3162 18.627 26.3162 19.7145C26.3162 23.5405 23.9859 24.383 21.7678 24.6295C22.1251 24.9387 22.4434 25.5449 22.4434 26.4742C22.4434 27.807 22.4319 28.8798 22.4319 29.2079C22.4319 29.473 22.6112 29.7836 23.1162 29.6858C27.072 28.3671 29.9226 24.6345 29.9226 20.2348C29.9226 14.7332 25.4627 10.2734 19.9613 10.2734Z" fill="white"/>
<path d="M13.7316 24.4638C13.7098 24.5133 13.6318 24.5281 13.5609 24.4942C13.4887 24.4617 13.4481 24.3942 13.4715 24.3445C13.493 24.2936 13.5709 24.2794 13.6431 24.3136C13.7155 24.346 13.7567 24.4142 13.7316 24.4638ZM14.2216 24.901C14.1741 24.9451 14.0813 24.9246 14.0182 24.855C13.9531 24.7856 13.9409 24.6927 13.9891 24.648C14.0381 24.604 14.1281 24.6245 14.1934 24.6941C14.2586 24.7643 14.2713 24.8566 14.2216 24.9011M14.5578 25.4604C14.4967 25.5028 14.3969 25.4631 14.3352 25.3745C14.2742 25.2859 14.2742 25.1797 14.3366 25.1371C14.3984 25.0945 14.4967 25.1328 14.5592 25.2207C14.6202 25.3108 14.6202 25.417 14.5577 25.4605M15.1263 26.1083C15.0716 26.1684 14.9554 26.1524 14.8702 26.0702C14.7832 25.9899 14.7589 25.8759 14.8137 25.8156C14.8689 25.7553 14.9859 25.7723 15.0716 25.8538C15.1581 25.9339 15.1845 26.0488 15.1263 26.1083ZM15.8609 26.327C15.837 26.405 15.7249 26.4405 15.6121 26.4074C15.4995 26.3732 15.4257 26.2818 15.4484 26.203C15.4719 26.1245 15.5844 26.0875 15.6981 26.123C15.8106 26.157 15.8844 26.2477 15.8609 26.327ZM16.6972 26.4198C16.7 26.502 16.6043 26.5701 16.4859 26.5716C16.3667 26.5742 16.2704 26.5077 16.2691 26.4269C16.2691 26.3439 16.3627 26.2764 16.4817 26.2745C16.6002 26.2721 16.6972 26.3381 16.6972 26.4198ZM17.5186 26.3883C17.5328 26.4684 17.4505 26.5508 17.3329 26.5727C17.2173 26.5938 17.1102 26.5443 17.0955 26.4649C17.0811 26.3827 17.165 26.3004 17.2804 26.2791C17.3982 26.2586 17.5036 26.3068 17.5186 26.3883Z" fill="white"/>
</g>
<defs>
<clipPath id="clip0_4516_1669">
<rect width="20" height="20" fill="white" transform="translate(10 10)"/>
</clipPath>
</defs>
</svg>
